Coordinates
version=1
nRows=7
nColumns=42
inDegrees=yes

Units are S.I. units (second, meters, Newtons, ...)
If the header above contains a line with 'inDegrees', this indicates whether rotational values are in degrees (yes) or radians (no).

endheader
time	pelvis_tilt	pelvis_list	pelvis_rotation	pelvis_tx	pelvis_ty	pelvis_tz	hip_flexion_r	hip_adduction_r	hip_rotation_r	knee_angle_r	knee_adduction_r	knee_angle_r_beta	ankle_angle_r	subtalar_angle_r	mtp_angle_r	hip_flexion_l	hip_adduction_l	hip_rotation_l	knee_angle_l	knee_adduction_l	knee_angle_l_beta	ankle_angle_l	subtalar_angle_l	mtp_angle_l	lumbar_extension	lumbar_bending	lumbar_rotation	arm_flex_r	arm_add_r	arm_rot_r	elbow_flex_r	pro_sup_r	wrist_flex_r	wrist_dev_r	arm_flex_l	arm_add_l	arm_rot_l	elbow_flex_l	pro_sup_l	wrist_flex_l	wrist_dev_l
      1.23000000	      4.21262154	     -2.93545952	    -10.40884677	      0.35148055	      0.98122666	     -0.19816276	    -21.45054108	     -2.39749047	      1.82932087	     18.41395591	      8.39235708	      0.32138416	     13.14110704	      7.56447027	     -7.52121233	     19.62715165	    -12.20963209	    -17.03616364	      9.92033878	     11.88280117	      0.17314257	     -1.41305772	     -3.52802127	     -7.52121233	    -16.40306378	     -2.99968255	     13.04037914	     20.61561493	    -21.65561439	     -5.25909827	     42.81402222	     90.00000001	      0.00000000	      0.00000000	    -17.28741070	     -7.18136535	    -24.44841878	     10.62121799	     90.00000001	      0.00000000	      0.00000000
      1.24000000	      4.36619571	     -2.33463432	    -10.61215416	      0.36750731	      0.98050772	     -0.19849002	    -21.68964415	     -3.29419963	      2.06838877	     19.72592412	      8.27982088	      0.34428232	     12.02100284	      7.12137602	     -7.52084040	     19.61309316	    -11.46543043	    -16.46538874	     11.33565114	     11.76467339	      0.19784444	     -2.50690410	     -4.44466033	     -7.52084040	    -16.33994143	     -3.82596201	     12.92272127	     19.99484098	    -21.48700911	     -5.39011709	     43.15132800	     90.00000001	      0.00000000	      0.00000000	    -17.29151099	     -7.25452873	    -24.63037074	     10.60683718	     90.00000001	      0.00000000	      0.00000000
      1.25000000	      4.53544055	     -1.68285809	    -10.75229445	      0.38358068	      0.98015780	     -0.19892901	    -21.78432486	     -4.22768531	      2.21857978	     21.26718394	      8.20458792	      0.37118238	     10.61497381	      6.59506603	     -7.52050489	     19.61460875	    -10.68225845	    -15.75278943	     12.83209117	     11.66896568	      0.22396224	     -3.65943498	     -5.31464060	     -7.52050489	    -16.28517118	     -4.68283630	     12.76092287	     19.30163463	    -21.27833203	     -5.56365893	     43.38679814	     90.00000001	      0.00000000	      0.00000000	    -17.19131867	     -7.34827325	    -24.78541035	     10.61174876	     90.00000001	      0.00000000	      0.00000000
      1.26000000	      4.61959383	     -0.96707963	    -10.84473535	      0.39959653	      0.98029802	     -0.19933268	    -21.62827963	     -5.11852935	      2.62877948	     22.98594685	      8.16157454	      0.40118045	      8.75685127	      5.03203062	     -7.51485078	     19.43618539	     -9.74827170	    -13.51096145	     13.57069980	     11.87871095	      0.23685339	     -5.97608304	     -9.43687754	     -7.51485078	    -16.15247186	     -5.62355788	     12.59775835	     18.28125790	    -20.90399841	     -6.15667598	     43.82391097	     90.00000001	      0.00000000	      0.00000000	    -16.11351016	     -7.52429075	    -28.51124560	      9.29903595	     90.00000001	      0.00000000	      0.00000000
      1.27000000	      4.86993534	     -0.24058517	    -10.82924117	      0.41578186	      0.98079679	     -0.20001244	    -21.43054409	     -6.09507310	      2.47241439	     25.07598258	      8.12490083	      0.43765846	      6.57191872	      4.56476424	     -7.51460688	     19.43338734	     -8.85201874	    -12.82140663	     15.31954157	     11.78963532	      0.26737644	     -6.51020917	     -9.70202933	     -7.51460688	    -16.18819564	     -6.53785708	     12.19687421	     17.58137558	    -20.54445381	     -6.23408295	     43.73086555	     90.00000001	      0.00000000	      0.00000000	    -15.94276026	     -7.65251115	    -28.44971005	      9.51438841	     90.00000001	      0.00000000	      0.00000000
      1.28000000	      5.00725806	      0.49626305	    -10.76532833	      0.43183659	      0.98165896	     -0.20075936	    -20.88377466	     -6.99132893	      2.50875833	     27.45507321	      8.11430583	      0.47918142	      3.75174678	      2.86585409	     -7.51356866	     19.43426482	     -7.89844527	    -11.56553473	     16.77387468	     11.84256714	      0.29275934	     -7.50077718	    -11.54660072	     -7.51356866	    -16.12624605	     -7.43101945	     11.87711449	     16.64702109	    -20.00773896	     -6.95067562	     43.61827557	     90.00000001	      0.00000000	      0.00000000	    -15.34868396	     -7.91190945	    -28.56937512	      9.18112677	     90.00000001	      0.00000000	      0.00000000
      1.29000000	      5.28769222	      1.23338079	    -10.65593071	      0.44788437	      0.98287676	     -0.20175019	    -20.24402957	     -7.96014276	      2.18334550	     30.17805657	      8.04946663	      0.52670645	      0.76962808	      2.16748869	     -7.51338698	     19.27761808	     -6.86311161	    -10.73196666	     18.33165585	     11.78713309	      0.31994775	     -7.46296536	    -12.16390548	     -7.51338698	    -16.23151731	     -8.30099051	     11.38676941	     15.80711181	    -19.59821109	     -6.97328988	     43.30811689	     90.00000001	      0.00000000	      0.00000000	    -14.93509193	     -8.06783398	    -28.63913574	      9.31798641	     90.00000001	      0.00000000	      0.00000000
